<?xml version="1.0" encoding="utf-8"?>
<!-- Generator: Adobe Illustrator 23.0.1, SVG Export Plug-In . SVG Version: 6.00 Build 0)  -->
<svg version="1.1" id="레이어_1" xmlns="http://www.w3.org/2000/svg" xmlns:xlink="http://www.w3.org/1999/xlink" x="0px"
	 y="0px" viewBox="0 0 500 500" style="enable-background:new 0 0 500 500;" xml:space="preserve">
<path d="M147.2,180.7L127,264.3h14.6l-5.8,24H121l-7.6,31H85l7.4-31H33l5-22c4.3-5.9,9.5-12.5,15.6-19.9c6.1-7.4,12.8-15,20-22.7
	c7.2-7.7,14.7-15.3,22.4-22.8c7.7-7.5,15.3-14.2,22.8-20.2H147.2z M110.6,215.9c-3.5,3.3-7.1,6.9-10.9,10.8
	c-3.8,3.9-7.6,7.9-11.5,12.1c-3.9,4.2-7.6,8.5-11.3,12.8c-3.7,4.3-7.1,8.6-10.3,12.7H99L110.6,215.9z"/>
<path d="M233.1,322.3c-6.5,0-12.1-1.2-16.6-3.5c-4.5-2.3-8.2-5.4-11.1-9.3c-2.9-3.9-4.9-8.2-6.2-13.1c-1.3-4.9-1.9-9.9-1.9-15.1
	c0-15.2,1.7-29.1,5.1-41.8c3.4-12.7,8.1-23.6,14.2-32.8c6.1-9.2,13.4-16.3,21.9-21.4c8.5-5.1,18-7.6,28.4-7.6
	c6.5,0,12.1,1.2,16.6,3.5c4.5,2.3,8.2,5.4,11.1,9.3c2.9,3.9,4.9,8.2,6.2,13.1c1.3,4.9,1.9,9.9,1.9,15.1c0,15.2-1.7,29.1-5.1,41.8
	c-3.4,12.7-8.1,23.6-14.2,32.8c-6.1,9.2-13.4,16.3-21.9,21.4C253,319.8,243.5,322.3,233.1,322.3z M237.7,296.7
	c4.3,0,8.2-1.3,11.8-3.8c3.6-2.5,6.8-5.9,9.5-10c2.7-4.1,5.1-8.8,7.2-14.1c2.1-5.3,3.8-10.6,5.1-16.1c1.3-5.5,2.3-10.8,3-16
	c0.7-5.2,1-9.8,1-13.8c0-6.8-1-11.8-3.1-15c-2.1-3.2-5.2-4.8-9.5-4.8c-4.4,0-8.4,1.3-12,3.8c-3.6,2.5-6.8,5.9-9.6,10
	c-2.8,4.1-5.2,8.9-7.3,14.2c-2.1,5.3-3.8,10.7-5.1,16.2c-1.3,5.5-2.3,10.8-3,16c-0.7,5.2-1,9.8-1,13.8c0,6.9,1.1,11.9,3.2,15
	C230,295.2,233.3,296.7,237.7,296.7z"/>
<path d="M467,180.7l-20.2,83.6h14.6l-5.8,24h-14.8l-7.6,31h-28.4l7.4-31h-59.4l5-22c4.3-5.9,9.5-12.5,15.6-19.9
	c6.1-7.4,12.8-15,20-22.7c7.2-7.7,14.7-15.3,22.4-22.8c7.7-7.5,15.3-14.2,22.8-20.2H467z M430.4,215.9c-3.5,3.3-7.1,6.9-10.9,10.8
	c-3.8,3.9-7.6,7.9-11.5,12.1c-3.9,4.2-7.6,8.5-11.3,12.8c-3.7,4.3-7.1,8.6-10.3,12.7h32.4L430.4,215.9z"/>
</svg>
