<?xml version="1.0" encoding="utf-8"?>
<!-- Generator: Adobe Illustrator 23.0.1, SVG Export Plug-In . SVG Version: 6.00 Build 0)  -->
<svg version="1.1" id="ë ˆì´ì–´_1" xmlns="http://www.w3.org/2000/svg" xmlns:xlink="http://www.w3.org/1999/xlink" x="0px"
	 y="0px" viewBox="0 0 99.2 99.2" style="enable-background:new 0 0 99.2 99.2;" xml:space="preserve">
<path d="M72.4,30.5c-1.2-1.2-3.1-1.2-4.3,0l-3.6,3.6l-3.6-3.6c-1.2-1.2-3.1-1.2-4.3,0s-1.2,3.1,0,4.3l3.6,3.6L56.6,42
	c-1.2,1.2-1.2,3.1,0,4.3s3.1,1.2,4.3,0l3.6-3.6l3.6,3.6c1.2,1.2,3.1,1.2,4.3,0c1.2-1.2,1.2-3.1,0-4.3l-3.6-3.6l3.6-3.6
	C73.6,33.6,73.6,31.7,72.4,30.5z"/>
<title>part 4</title>
<path d="M49.6,0C22.2,0,0,22.2,0,49.6s22.2,49.6,49.6,49.6S99.2,77,99.2,49.6S77,0,49.6,0z M49.6,89.3c-21.9,0-39.7-17.8-39.7-39.7
	S27.7,9.9,49.6,9.9s39.7,17.8,39.7,39.7S71.5,89.3,49.6,89.3z"/>
<path d="M49.6,79.4c5.2,0,9.4-4.2,9.4-9.4v-9.3c0-5.2-4.2-9.4-9.4-9.4s-9.4,4.2-9.4,9.4V70C40.2,75.2,44.4,79.4,49.6,79.4z"/>
<path d="M42.7,46.4c1.2-1.2,1.2-3.1,0-4.3L39,38.4l3.6-3.6c1.2-1.2,1.2-3.1,0-4.3c-1.2-1.2-3.1-1.2-4.3,0l-3.6,3.6l-3.6-3.6
	c-1.2-1.2-3.1-1.2-4.3,0s-1.2,3.1,0,4.3l3.6,3.6L26.8,42c-1.2,1.2-1.2,3.1,0,4.3s3.1,1.2,4.3,0l3.6-3.6l3.6,3.6
	C39.6,47.6,41.5,47.6,42.7,46.4z"/>
</svg>
