<svg xmlns="http://www.w3.org/2000/svg" xmlns:xlink="http://www.w3.org/1999/xlink" xml:space="preserve" version="1.1" style="shape-rendering:geometricPrecision;text-rendering:geometricPrecision;image-rendering:optimizeQuality;" viewBox="0 0 846.66 1058.325" x="0px" y="0px" fill-rule="evenodd" clip-rule="evenodd"><defs><style type="text/css">
   
    .fil0 {fill:black}
   
  </style></defs><g><path class="fil0" d="M515.79 168.24c30.26,10.96 58,27.17 82.15,47.5l45.35 -17.37c17.68,-6.77 37.57,-3.79 47.04,12.61 16.81,29.1 33.61,58.21 50.41,87.31 9.47,16.4 2.1,35.11 -12.6,47.04l-37.67 30.56c2.72,15.4 4.14,31.26 4.14,47.45 0,16.19 -1.43,32.05 -4.14,47.45l37.67 30.56c14.7,11.93 22.07,30.64 12.6,47.04 -16.8,29.1 -33.6,58.21 -50.41,87.31 -9.47,16.4 -29.36,19.38 -47.04,12.61l-45.35 -17.37c-24.15,20.33 -51.89,36.54 -82.14,47.5l-7.62 47.88c-2.98,18.7 -15.5,34.43 -34.44,34.43 -33.61,0 -67.21,0 -100.82,0 -18.94,0 -31.46,-15.73 -34.44,-34.43l-7.62 -47.88c-30.25,-10.97 -57.99,-27.17 -82.14,-47.5l-45.35 17.37c-17.68,6.77 -37.57,3.79 -47.04,-12.61 -16.81,-29.1 -33.61,-58.21 -50.41,-87.31 -9.47,-16.4 -2.1,-35.11 12.6,-47.04l37.67 -30.56c-2.72,-15.4 -4.14,-31.26 -4.14,-47.45 0,-16.19 1.43,-32.05 4.14,-47.45l-37.67 -30.56c-14.7,-11.93 -22.07,-30.64 -12.6,-47.04 16.8,-29.1 33.61,-58.21 50.41,-87.31 9.47,-16.4 29.36,-19.38 47.04,-12.61l45.35 17.37c24.15,-20.33 51.89,-36.54 82.15,-47.5l7.61 -47.88c2.98,-18.7 15.5,-34.43 34.44,-34.43 33.61,0 67.21,0 100.82,0 18.94,0 31.46,15.73 34.44,34.43l7.61 47.88zm-92.46 113.86c78.01,0 141.24,63.23 141.24,141.24 0,78.01 -63.23,141.24 -141.24,141.24 -78.01,0 -141.24,-63.23 -141.24,-141.24 0,-78.01 63.23,-141.24 141.24,-141.24z"/></g><text x="0" y="861.66" fill="#000000" font-size="5px" font-weight="bold" font-family="'Helvetica Neue', Helvetica, Arial-Unicode, Arial, Sans-serif">Created by adindar</text><text x="0" y="866.66" fill="#000000" font-size="5px" font-weight="bold" font-family="'Helvetica Neue', Helvetica, Arial-Unicode, Arial, Sans-serif">from the Noun Project</text></svg>