<?xml version="1.0" encoding="utf-8"?>
<!-- Generator: Adobe Illustrator 23.0.1, SVG Export Plug-In . SVG Version: 6.00 Build 0)  -->
<svg version="1.1" id="ë ˆì´ì–´_1" xmlns="http://www.w3.org/2000/svg" xmlns:xlink="http://www.w3.org/1999/xlink" x="0px"
	 y="0px" viewBox="0 0 99.2 99.2" style="enable-background:new 0 0 99.2 99.2;" xml:space="preserve">
<title>part 4</title>
<g>
	<path d="M49.6,0C22.2,0,0,22.2,0,49.6s22.2,49.6,49.6,49.6S99.2,77,99.2,49.6S77,0,49.6,0z M49.6,89.3c-21.9,0-39.7-17.8-39.7-39.7
		S27.7,9.9,49.6,9.9s39.7,17.8,39.7,39.7S71.5,89.3,49.6,89.3z"/>
	<path d="M34.7,48.4c2.7,0,5-2.2,5-5v-9.9c0-2.7-2.2-5-5-5s-5,2.2-5,5v9.9C29.8,46.1,32,48.4,34.7,48.4z"/>
	<path d="M64.5,48.4c2.7,0,5-2.2,5-5v-9.9c0-2.7-2.2-5-5-5s-5,2.2-5,5v9.9C59.5,46.1,61.7,48.4,64.5,48.4z"/>
	<path d="M65.7,53.3c-2.7,0-5,2.2-5,5c0,6.2-5,11.2-11.2,11.2s-11.2-5-11.2-11.2c0-2.7-2.2-5-5-5s-5,2.2-5,5
		c0,11.6,9.4,21.1,21.1,21.1S70.5,70,70.5,58.3C70.7,55.5,68.5,53.3,65.7,53.3z"/>
</g>
</svg>
