<?xml version="1.0" encoding="utf-8"?>
<!-- Generator: Adobe Illustrator 23.0.1, SVG Export Plug-In . SVG Version: 6.00 Build 0)  -->
<svg version="1.1" id="레이어_1" xmlns="http://www.w3.org/2000/svg" xmlns:xlink="http://www.w3.org/1999/xlink" x="0px"
	 y="0px" viewBox="0 0 100 100" style="enable-background:new 0 0 100 100;" xml:space="preserve">
<g>
	<path d="M35.9,43c3.5,2.9,8.3,5.2,13.1,6.6c-1.1,1.1-2.8,3.1-3.5,4.5c-5.7-2-11.3-5.7-15.3-10.1v6.6h-5.3V44
		c-2.6,3-5.9,5.7-9.5,7.7h20c-0.3,1.5-0.6,3.1-0.9,4.6h10.5c0,0-0.1,1.4-0.2,2.1c-0.7,6.5-1.4,9.6-2.8,10.9
		c-1.2,1.2-2.4,1.5-4.2,1.7c-1.4,0.1-4,0.1-6.7,0c-0.1-1.5-0.8-3.6-1.7-4.9c2.4,0.2,5.1,0.3,6.3,0.3c0.8,0,1.4,0,1.9-0.4
		c0.6-0.5,1.1-2.1,1.5-5.1h-5.6c-0.2,0.7-0.4,1.4-0.5,1.9l-4.9-0.7c0.5-1.6,1-3.8,1.4-5.9h-4.8c-1.3,6.5-4.3,11.8-13.9,15
		c-0.6-1.4-2-3.6-3.2-4.6C15.5,64.4,18,60.7,19,56.2h-5.6v-3.5c-1.2,0.6-2.5,1.2-3.8,1.6c-0.8-1.3-2.3-3.2-3.4-4.3
		c4.8-1.4,9.5-4,13-7H7.8v-4.8h17.1v-3c-4.7,0.4-9.4,0.5-13.7,0.6c-0.1-1.2-0.7-3.3-1.2-4.3c10.4-0.3,22.3-1.3,29.4-2.7l3.9,4.2
		c-3.9,0.8-8.3,1.4-13.1,1.8v3.4h17.3V43H35.9z"/>
	<path d="M81.1,62.8c4.5,1.5,9.6,3.4,12.6,4.7l-4.6,3.6c-3-1.5-8.1-3.6-13-5.3l3.1-2.9H65.9l4.2,2.9c-3.6,2.1-9.2,4.3-13.7,5.4
		c-0.9-1.1-2.5-2.7-3.6-3.7c4.4-1,9.6-2.9,12.5-4.6H53v-4.4h40.3v4.4H81.1z M70.2,36.5H54.3V32h15.9v-3.3h5.6V32h16.5v4.5H75.8v1.9
		h11.6v18.2H59.6V38.4h10.6V36.5z M81.9,41.6H64.8v1.9h17.1V41.6z M81.9,46.6H64.8v1.9h17.1V46.6z M81.9,51.5H64.8v2h17.1V51.5z"/>
</g>
</svg>
